<svg width="60" height="60" viewBox="0 0 60 60" fill="none" xmlns="http://www.w3.org/2000/svg">
<path d="M30 1C46.0163 1 59 13.9837 59 30C59 46.0163 46.0163 59 30 59C13.9837 59 1 46.0163 1 30C1 13.9837 13.9837 1 30 1Z" fill="#745893" stroke="#F7F7F5" stroke-width="2"/>
<path d="M23.753 49.7135C22.6543 48.6744 22.5319 46.9768 23.4535 45.7789C25.5101 43.1018 27.5916 39.3227 28.3378 34.4401C28.8541 31.0697 28.4338 25.5814 27.5271 22.2293L28.7961 22.8183C29.8633 23.3147 30.6427 24.2843 30.8726 25.4375C31.4964 28.5646 31.5692 31.7265 31.0894 34.8603C30.0205 41.8476 26.5095 46.7931 23.7513 49.7135H23.753Z" fill="#FFF200"/>
<path d="M44.3577 30.929C44.1178 34.1307 39.4882 37.5871 31.9781 40.1732L31.4751 40.3469L31.5628 39.8224C31.8457 38.1116 32.9543 36.6688 34.5245 35.9689C38.0272 34.4037 39.8887 32.5042 40.0525 30.3218C40.1981 28.3959 37.9826 25.2522 31.3312 22.2094C27.1219 20.2818 23.055 18.7762 20.3861 17.8496C19.175 17.431 18.3742 16.243 18.4403 14.9607L18.4602 14.5603L18.8457 14.6745C21.1737 15.3611 27.1765 17.2242 32.6499 19.7292C40.8152 23.4669 44.6456 27.1301 44.3593 30.9274L44.3577 30.929Z" fill="#FFF200"/>
<path d="M32.5452 15.8063C33.2233 14.7011 32.6908 13.1411 31.3558 12.322C30.0207 11.503 28.3888 11.735 27.7107 12.8402C27.0326 13.9455 27.5652 15.5054 28.9002 16.3245C30.2352 17.1436 31.8671 16.9116 32.5452 15.8063Z" fill="#FFF200"/>
</svg>
