<svg width="59" height="59" viewBox="0 0 59 59" fill="none" xmlns="http://www.w3.org/2000/svg">
<rect x="15.3579" y="40.1066" width="35" height="5" rx="2.5" transform="rotate(-45 15.3579 40.1066)" fill="white"/>
<rect x="15.3579" y="40.1066" width="35" height="5" rx="2.5" transform="rotate(-45 15.3579 40.1066)" fill="white"/>
<rect x="33.4038" y="31.3683" width="18" height="5" rx="2.5" transform="rotate(45 33.4038 31.3683)" fill="white"/>
<rect x="33.4038" y="31.3683" width="18" height="5" rx="2.5" transform="rotate(45 33.4038 31.3683)" fill="white"/>
<rect x="33.4038" y="31.3683" width="18" height="5" rx="2.5" transform="rotate(45 33.4038 31.3683)" fill="white"/>
<rect x="16.4038" y="11.3683" width="18" height="5" rx="2.5" transform="rotate(45 16.4038 11.3683)" fill="white"/>
<rect x="16.4038" y="11.3683" width="18" height="5" rx="2.5" transform="rotate(45 16.4038 11.3683)" fill="white"/>
<rect x="16.4038" y="11.3683" width="18" height="5" rx="2.5" transform="rotate(45 16.4038 11.3683)" fill="white"/>
</svg>
